PathFileType	4	(X/Y/Z)	C:/Users/beibeiliu/ov580/test_trc/User2\sequence.1_training_dense_right.trc
DataRate	CameraRate	NumFrames	NumMarkers	Units	OrigDataRate	OrigDataStartFrame	OrigNumFrames
120	120	14	19	mm	120	76	200
Frame#	Time	ThumbCMC			ThumbMCP			ThumbIP			ThumbTip			IndexMCP			IndexPIP			IndexTip			MiddleMCP			MiddlePIP			MiddleTip			RingMCP			RingPIP			RingTip			PinkyMCP			PinkyPIP			PinkyTip			BackHand1			BackHand2			BackHand3	
		X0	Y0	Z0	X1	Y1	Z1	X2	Y2	Z2	X3	Y3	Z3	X4	Y4	Z4	X5	Y5	Z5	X6	Y6	Z6	X7	Y7	Z7	X8	Y8	Z8	X9	Y9	Z9	X10	Y10	Z10	X11	Y11	Z11	X12	Y12	Z12	X13	Y13	Z13	X14	Y14	Z14	X15	Y15	Z15	X16	Y16	Z16	X17	Y17	Z17	X18	Y18	Z18	
75	0.625	57.0398	46.3996	20.1733	38.0773	65.6376	5.24826	20.8356	77.6655	-21.3881	7.34664	85.7645	-45.4572	69.2669	52.7043	-64.8478	62.2523	57.002	-91.4606	54.3844	58.5517	-118.019	84.8669	33.6681	-71.6196	79.6857	32.4362	-105.88	75.3517	28.5433	-138.603	97.4368	7.03465	-72.84	95.4824	6.27182	-94.5037	94.1645	3.74005	-124.422	100.607	-18.2449	-53.8044	101.27	-25.5443	-78.154	105.263	-28.8099	-105.201	107.157	6.06472	-15.5057	110.839	5.96846	19.5375	91.4678	40.7879	3.58328	
76	0.633333	41.3634	32.1601	20.4896	17.3672	46.6561	-0.487992	-1.75786	52.1466	-24.9248	-18.5713	56.8907	-44.906	56.9592	44.7443	-61.7949	45.7368	51.6799	-89.3626	42.5931	49.5173	-121.964	75.8436	34.2622	-73.1972	74.8062	33.3891	-105.307	71.0279	33.0681	-134.697	93.5666	13.563	-68.7271	97.2207	12.8692	-97.9319	98.0077	13.7855	-123.613	104.122	-10.6229	-54.8949	109.681	-14.9478	-78.7485	116.768	-12.3163	-104.98	99.664	11.1089	-10.6908	107.941	11.3781	16.6741	77.6449	35.4533	8.33677	
77	0.641667	29.8535	19.0448	15.5272	6.64434	22.7105	-2.52205	-15.0619	28.0042	-28.6527	-30.848	27.3678	-51.0351	41.3164	40.7614	-67.9416	35.6974	42.4059	-94.1661	34.6699	42.6806	-122.789	69.5529	32.7353	-76.0298	66.1893	36.101	-104.894	70.6792	37.1176	-136.902	94.6769	17.454	-74.3424	92.9596	20.9036	-95.8911	96.1547	26.404	-121.698	109.889	-6.029	-56.106	117.491	-4.83169	-81.5158	126.429	1.21532	-105.246	94.1923	12.8099	-16.2469	100.145	11.9655	14.3731	67.6058	28.9416	2.44376	
78	0.65	23.5148	11.3281	11.5111	-1.40229	12.0262	-6.96637	-22.1111	15.0021	-41.1759	-29.8844	10.3513	-63.5668	39.3342	36.4499	-68.4343	29.8162	42.7436	-96.6754	30.7024	44.231	-125.604	65.5485	36.9997	-74.0209	68.1962	42.6585	-106.16	68.4486	49.4504	-135.546	92.1692	26.3066	-72.6495	97.0354	33.4657	-96.9991	97.9943	41.9842	-122.26	110.812	7.67207	-58.8172	119.919	11.3281	-77.7265	126.146	23.8447	-97.8281	90.0264	20.1452	-16.3667	90.6603	19.7095	16.9193	58.8425	29.2395	-1.19353	
79	0.658333	16.3928	10.5218	6.23961	-7.92199	10.9533	-13.3214	-22.2306	8.57825	-41.2178	-30.8131	7.7521	-67.5518	29.3821	46.8236	-71.0913	27.9674	53.1158	-98.8696	21.9817	55.602	-124.797	57.2857	51.4138	-70.9926	59.7827	61.4242	-100.418	60.8806	74.0808	-133.722	83.029	42.5384	-64.3502	88.2354	56.043	-90.3102	91.9549	68.2425	-117.035	107.41	25.5042	-52.9971	111.655	35.3483	-73.8164	125.184	50.5469	-90.6699	82.4599	29.4639	-12.9559	81.1848	27.2664	16.3643	47.9344	32.6642	1.54882	
80	0.666667	8.82629	10.8042	8.56207	-15.8274	11.4876	-15.0648	-31.3108	10.5201	-43.4969	-43.6864	8.31925	-66.3521	24.9591	50.7053	-68.7051	17.564	56.842	-95.076	15.2562	60.2631	-122.933	51.0108	55.9762	-69.513	53.3887	68.4909	-97.7412	50.9854	80.4867	-126.47	75.7546	48.1272	-60.492	79.0691	60.5429	-84.4036	81.8875	75.9763	-110.412	95.7383	30.0837	-49.7931	107.859	42.3496	-70.8769	117.799	58.2744	-88.74	72.7928	31.8208	-11.1254	73.6945	26.8785	18.6845	39.3543	33.3754	3.46664	
81	0.675	1.34756	4.7499	9.07261	-22.1652	3.48405	-12.0378	-40.3334	2.76871	-40.4797	-46.8038	-1.40158	-63.8205	13.4982	37.2804	-69.848	8.26519	41.0409	-97.1641	5.08904	44.1336	-126.158	45.4889	43.3661	-75.0129	45.6365	50.8665	-105.521	43.2687	60.2242	-132.703	70.3028	35.4016	-65.7559	71.6043	45.7742	-90.7023	79.2582	56.4843	-115.625	90.0769	18.2555	-51.7732	101.832	27.0407	-71.6857	109.46	41.4564	-87.8714	66.7681	22.1051	-10.3088	70.2429	21.0943	20.1732	36.2617	27.469	1.81463	
82	0.683333	-8.17974	0.663741	9.57388	-29.2011	-3.43494	-10.2772	-46.0133	-8.17129	-39.6102	-58.2763	-14.859	-60.3614	9.30398	16.8123	-75.2639	2.14619	16.4236	-99.2078	-0.0322377	13.7071	-125.189	36.2965	20.4245	-77.6116	34.1475	22.1989	-105.408	37.6247	26.5375	-141.53	62.3703	14.7067	-71.6798	64.8234	18.278	-97.7733	70.2574	23.1763	-120.892	81.6619	-0.113417	-50.6154	94.8656	4.20193	-73.9826	101.714	14.2308	-92.0732	61.6938	13.5705	-17.1639	61.0352	18.1753	14.9037	27.2742	20.2682	-3.35386	
83	0.691667	-9.82572	1.23987	12.0505	-37.1823	-3.35269	-8.10633	-55.5986	-10.7644	-32.6176	-69.6465	-19.3893	-53.0072	2.08676	3.01892	-73.4807	-9.01487	-2.60564	-101.082	-14.7898	-9.34255	-127.051	31.2682	3.07992	-79.2279	28.8856	-2.65378	-108.29	28.8292	-6.0836	-139.907	52.9509	-3.55575	-70.3809	58.9837	-6.94616	-95.2988	60.0161	-5.30366	-126.514	75.4376	-15.212	-55.1466	85.0741	-16.9593	-78.6122	93.6576	-12.9254	-96.2547	57.464	7.19702	-17.3574	59.2537	14.3533	16.413	23.0772	19.4897	-4.80366	
84	0.7	-11.2286	9.50524	12.4878	-35.6828	5.6616	-6.37382	-61.396	-0.436099	-30.8481	-74.659	-10.0422	-45.7777	-8.32999	-1.5793	-73.4204	-13.9351	-12.9606	-98.4407	-21.867	-22.724	-123.063	22.8531	-8.82169	-77.9059	20.4296	-19.418	-110.416	21.8061	-29.5933	-139.28	46.2687	-17.5995	-74.3849	54.1947	-27.3979	-95.5285	49.7295	-32.4993	-123.541	67.5276	-29.7027	-49.0057	77.7599	-39.1202	-72.2543	81.5473	-41.6716	-95.6954	49.7055	2.69903	-21.4168	57.5236	13.2836	9.77883	23.8079	18.25	-8.20124	
85	0.708333	-4.89051	23.028	9.58095	-31.4737	25.1974	-5.23759	-54.8949	19.6576	-29.2825	-75.9741	16.6953	-42.3353	-6.76164	-0.516672	-70.3242	-18.5607	-10.9442	-94.5259	-29.3812	-23.7958	-118.783	16.6345	-15.479	-80.7836	13.7438	-29.9952	-103.067	7.01574	-44.7595	-134.104	43.1407	-32.557	-71.5089	39.4001	-42.2141	-91.5618	39.702	-56.3438	-118.681	58.4391	-44.2012	-50.984	62.4844	-57.8724	-68.9933	64.1596	-68.1947	-94.4817	51.8057	-1.91554	-19.3081	62.1375	9.54132	10.7722	31.3774	22.0941	-6.85896	
86	0.716667	8.69806	41.8463	6.94043	-16.2053	52.4166	-5.61002	-42.5857	53.7059	-31.8699	-62.2473	52.867	-42.254	-5.78837	8.32563	-72.3528	-19.7732	-1.07813	-89.4347	-35.753	-15.8095	-115.004	14.4831	-15.4057	-76.4245	1.33277	-31.4186	-99.8981	-13.3173	-47.178	-124.942	30.2849	-38.5136	-68.8212	20.9325	-50.1382	-88.3708	11.5871	-63.7437	-112.162	42.4554	-50.6231	-45.3587	38.6954	-67.2385	-64.8781	37.7193	-79.9317	-83.1743	52.5685	-7.29157	-21.4562	70.2035	6.25762	5.40965	40.7152	26.1571	-14.0804	
87	0.725	29.3695	55.6358	6.03756	7.79849	72.1678	-13.868	-17.9496	82.8068	-35.5973	-38.0524	85.5383	-49.9218	-1.32596	19.838	-70.9374	-19.848	15.3574	-87.3446	-40.4942	10.1602	-106.952	5.52378	-8.00678	-74.4761	-13.8788	-18.4651	-92.2631	-31.294	-35.3858	-111.886	14.6609	-32.3833	-62.785	0.689474	-47.3751	-78.5255	-15.0226	-57.7764	-98.1753	23.9244	-50.2683	-37.6513	10.636	-65.3123	-53.0609	2.41908	-83.5193	-69.8514	53.3227	-8.51027	-19.6671	69.586	1.1144	3.93099	51.0781	28.3777	-12.9221	
88	0.733333	46.2648	62.3082	4.59308	29.8851	85.5819	-14.793	7.26522	96.242	-35.9289	-13.1306	103.315	-50.6365	2.46631	31.5239	-67.9396	-20.2995	29.971	-87.9055	-43.9344	30.3252	-104.605	0.441625	-0.5015	-69.6299	-21.8259	-5.86634	-85.3465	-47.6252	-13.6314	-105.042	-0.273607	-19.6876	-58.2845	-19.7383	-31.4786	-72.2217	-40.6076	-43.8052	-88.7622	7.00091	-37.4827	-32.2749	-13.3794	-54.2022	-43.4641	-30.4418	-67.6131	-58.3903	44.7267	-5.07168	-20.9432	68.3094	0.18216	1.62924	57.2042	30.0582	-16.7539	
